# xmcd CD database file
#
# Track frame offsets:
#	150
#	19564
#	35053
#	52332
#	72198
#	88480
#	107963
#	124434
#	144748
#	165634
#	192608
#	206943
#	226307
#	242657
#	262939
#	281928
#	297171
#	312599
#	335516
#
# Disc length: 4769 seconds
#
# Revision: 0
# Processed by: cddbd v1.5.2PL0 Copyright (c) Steve Scherf et al.
# Submitted via: CDex 1.51
#
DISCID=3d129f13
DTITLE=Shania Twain - Up Live
DYEAR=2002
DGENRE=Country
TTITLE0=Shania Twain - Up Live - 01 Man I Feel Like A Woman
TTITLE1=Shania Twain - Up Live - 02 Up!
TTITLE2=Shania Twain - Up Live - 03 Honey I'm Home
TTITLE3=Shania Twain - Up Live - 04 Forever And For Always
TTITLE4=Shania Twain - Up Live - 05 Ka Ching!
TTITLE5=Shania Twain - Up Live - 06 When You Kiss Me
TTITLE6=Shania Twain - Up Live - 07 Don't Be Stupid (You Know I Love You)
TTITLE7=Shania Twain - Up Live - 08 That Don't Impress Me Much
TTITLE8=Shania Twain - Up Live - 09 I'm Gonna Getcha Good!
TTITLE9=Shania Twain - Up Live - 10 From This Moment On
TTITLE10=Shania Twain - Up Live - 11 No One Needs To Know
TTITLE11=Shania Twain - Up Live - 12 Thank You Baby! (For Making Someday Come So Soon)
TTITLE12=Shania Twain - Up Live - 13 It Only Hurts When I'm Breathing
TTITLE13=Shania Twain - Up Live - 14 Whose Bed Have Your Boots Been Under
TTITLE14=Shania Twain - Up Live - 15 Any Man Of Mine
TTITLE15=Shania Twain - Up Live - 16 In My Car (I'll Be The Driver)
TTITLE16=Shania Twain - Up Live - 17 You're Still The One
TTITLE17=Shania Twain - Up Live - 18 Nah!
TTITLE18=Shania Twain - Up Live - 19 Rock This Country!
EXTD=YEAR: 2002
EXTT0=
EXTT1=
EXTT2=
EXTT3=
EXTT4=
EXTT5=
EXTT6=
EXTT7=
EXTT8=
EXTT9=
EXTT10=
EXTT11=
EXTT12=
EXTT13=
EXTT14=
EXTT15=
EXTT16=
EXTT17=
EXTT18=
PLAYORDER=
